<?xml version="1.0" standalone="no"?>
<!DOCTYPE svg PUBLIC "-//W3C//DTD SVG 20010904//EN"
 "http://www.w3.org/TR/2001/REC-SVG-20010904/DTD/svg10.dtd">
<svg version="1.0" xmlns="http://www.w3.org/2000/svg"
 width="636.000000pt" height="684.000000pt" viewBox="0 0 636.000000 684.000000"
 preserveAspectRatio="xMidYMid meet">
<metadata>
Created by potrace 1.15, written by Peter Selinger 2001-2017
</metadata>
<g transform="translate(0.000000,684.000000) scale(0.100000,-0.100000)"
fill="#000000" stroke="none">
<path d="M2644 6619 c-34 -10 -156 -126 -197 -187 -63 -96 -87 -136 -87 -148
0 -7 -3 -14 -7 -16 -16 -6 -104 -180 -123 -239 -7 -24 -22 -63 -31 -85 -32
-73 -55 -326 -58 -646 l-1 -48 -945 0 -945 0 -6 -24 c-3 -14 -3 -30 1 -35 4
-8 297 -11 948 -11 l942 0 12 -27 c6 -16 14 -70 17 -121 4 -52 11 -117 17
-145 5 -29 10 -68 11 -87 1 -19 5 -38 10 -41 10 -7 -92 -99 -109 -99 -6 0 -18
-11 -27 -25 -9 -14 -21 -25 -27 -25 -11 0 -207 -168 -243 -209 l-19 -21 -769
0 -769 0 3 -27 3 -28 725 -5 725 -5 -82 -85 c-100 -103 -207 -231 -236 -283
-12 -21 -34 -60 -49 -85 -25 -42 -73 -139 -129 -258 -10 -23 -19 -49 -19 -58
0 -15 -41 -16 -471 -16 l-470 0 3 -27 3 -28 459 -3 c401 -2 457 -4 446 -17
-20 -25 -40 -192 -40 -345 0 -144 24 -385 41 -406 5 -6 6 -14 2 -17 -3 -4
-211 -7 -460 -7 l-454 0 3 -27 3 -28 468 -3 c427 -2 467 -4 467 -19 0 -21 101
-223 111 -223 5 0 16 -17 25 -37 21 -44 264 -291 309 -313 17 -9 55 -32 85
-51 48 -31 133 -79 250 -141 33 -17 12 -18 -840 -20 l-875 -3 -3 -27 -3 -28
1224 0 c968 0 1227 -3 1234 -12 6 -7 18 -76 27 -153 9 -77 20 -147 23 -155 13
-30 33 -199 39 -332 4 -76 11 -138 16 -138 11 0 10 -58 -2 -65 -5 -3 -10 -27
-10 -53 0 -64 -21 -128 -63 -193 -39 -61 -115 -139 -135 -139 -7 0 -15 -7 -19
-16 -8 -21 -164 -94 -202 -94 -16 0 -33 -5 -36 -10 -7 -12 -215 -14 -215 -2 0
4 -27 13 -59 20 -32 7 -64 19 -71 27 -6 8 -22 17 -33 21 -29 8 -57 34 -57 50
0 7 16 16 35 20 19 3 35 9 35 13 0 4 21 13 46 20 25 8 48 20 51 27 3 8 12 14
20 14 27 0 113 98 144 166 29 61 31 73 27 157 -2 61 -7 92 -15 95 -7 2 -13 10
-13 19 0 24 -81 113 -137 150 -28 19 -68 37 -87 40 -20 3 -36 10 -36 14 0 12
-107 11 -115 -1 -3 -5 -17 -10 -29 -10 -49 0 -112 -32 -164 -83 -28 -28 -52
-57 -52 -64 0 -7 -4 -13 -9 -13 -4 0 -16 -26 -26 -57 -10 -32 -22 -64 -28 -71
-14 -17 -15 -206 -1 -223 6 -8 15 -32 18 -53 4 -22 21 -59 37 -82 16 -24 29
-46 29 -49 0 -9 57 -65 65 -65 4 0 25 -15 47 -34 72 -62 249 -136 325 -136 12
0 25 -4 28 -10 8 -12 275 -14 275 -1 0 5 19 11 43 15 53 9 107 28 107 38 0 4
5 8 12 8 23 0 114 66 176 126 34 34 62 65 62 69 0 3 17 29 38 58 39 53 72 147
72 205 0 17 5 34 10 37 12 7 14 175 2 175 -4 0 -16 82 -26 183 -10 100 -21
187 -26 192 -4 6 -16 80 -26 165 -10 85 -22 158 -27 161 -40 28 44 29 1789 29
l1784 0 0 30 0 30 -1772 1 c-1349 0 -1767 3 -1748 12 14 6 27 14 30 17 3 4 19
12 37 19 18 7 38 20 44 28 7 8 31 24 53 35 52 27 214 189 258 258 52 84 106
196 114 236 4 21 13 49 20 63 8 14 14 36 14 47 0 12 3 36 6 53 l7 31 1468 0
1469 0 0 30 0 30 -1470 0 -1470 0 0 81 c0 86 -17 218 -30 234 -4 6 -13 30 -20
55 -6 25 -30 83 -53 130 -34 72 -57 101 -144 188 l-102 102 1134 0 1135 0 0
-135 c0 -74 1 -135 3 -135 1 0 32 9 70 19 l67 20 0 -235 0 -234 45 0 45 0 0
254 0 254 33 7 c17 4 37 11 42 15 6 4 37 15 70 24 33 10 74 23 90 31 17 7 47
16 68 20 l37 7 0 -261 0 -261 45 0 45 0 0 279 0 279 30 7 c16 3 47 15 69 26
32 15 62 19 151 19 l110 0 0 30 0 29 -112 3 -113 3 -3 138 -3 138 -30 -6 c-17
-4 -42 -13 -57 -21 -15 -8 -30 -14 -34 -14 -5 0 -8 114 -8 253 l0 252 43 20
c33 15 71 20 180 23 l137 4 0 29 0 28 -112 3 -113 3 -3 143 c-1 78 -5 142 -8
142 -21 0 -100 -25 -106 -34 -16 -25 -20 15 -21 231 l-2 228 -42 3 -43 3 0
-250 c0 -244 -1 -251 -20 -251 -11 0 -20 -4 -20 -8 0 -5 -24 -14 -52 -21 -29
-7 -66 -19 -83 -27 -36 -16 -134 -44 -152 -44 -10 0 -13 51 -13 260 l0 260
-45 0 -45 0 0 -279 0 -280 -30 -14 c-16 -9 -43 -18 -60 -22 -16 -4 -36 -15
-44 -26 -12 -18 -24 -19 -162 -17 l-149 3 -3 161 -2 162 37 7 c21 4 53 14 71
22 l32 15 0 174 c0 136 -3 174 -13 174 -7 0 -17 -4 -23 -8 -8 -8 -83 -32 -98
-32 -3 0 -6 27 -6 60 l0 60 665 0 665 0 0 35 0 35 -665 0 -665 0 0 160 c0 146
2 160 18 160 9 0 29 6 43 14 14 7 37 16 52 20 l27 6 0 175 c0 197 2 192 -75
155 -22 -11 -46 -19 -52 -20 -10 0 -13 52 -13 230 l0 230 -45 0 -44 0 0 -227
c0 -126 0 -238 -1 -249 0 -19 -11 -24 -70 -39 -39 -9 -72 -21 -75 -25 -3 -4
-36 -16 -75 -25 -39 -9 -73 -21 -76 -26 -3 -5 -12 -9 -20 -9 -12 0 -14 41 -14
265 l0 265 -45 0 -45 0 0 -279 c0 -211 -3 -281 -12 -289 -7 -5 -33 -15 -58
-22 -25 -7 -51 -17 -57 -22 -10 -8 -13 -57 -13 -180 0 -144 2 -169 14 -165 8
3 34 11 58 17 24 7 49 17 56 22 9 8 12 -6 12 -66 l0 -76 -731 0 c-691 0 -730
1 -725 18 2 9 8 47 12 85 3 37 10 70 15 73 12 7 11 391 -1 413 -4 9 -16 60
-25 114 -9 53 -21 99 -25 102 -4 2 -10 23 -14 45 -3 23 -15 60 -25 83 -11 23
-22 53 -26 67 -6 24 -50 121 -83 185 -8 17 -23 46 -33 65 -9 19 -38 56 -63 83
-39 40 -51 47 -83 46 -21 0 -52 -5 -69 -10z m227 -559 c32 -34 50 -64 58 -97
7 -26 17 -56 22 -65 11 -22 12 -228 1 -228 -5 0 -14 -22 -21 -50 -7 -27 -28
-81 -47 -120 -19 -38 -35 -73 -35 -77 0 -5 -7 -12 -15 -16 -8 -4 -14 -13 -14
-18 0 -12 -42 -70 -79 -111 l-25 -28 -218 0 c-209 0 -218 1 -218 19 0 11 4 22
9 25 4 3 11 38 15 78 8 87 26 189 36 203 4 6 13 35 19 65 19 91 99 254 164
334 26 33 47 63 47 68 0 4 5 8 10 8 6 0 31 13 58 30 40 25 57 30 116 30 l70 0
47 -50z m2070 -670 l3 -135 -167 -3 -167 -2 0 84 0 85 33 15 c17 8 59 23 92
32 33 9 67 21 75 26 14 8 123 37 127 34 1 0 3 -62 4 -136z m-2302 -242 c-36
-51 -287 -298 -303 -298 -8 0 -17 -8 -20 -17 -6 -14 -9 -13 -20 9 -13 25 -22
162 -18 281 l2 57 191 0 190 0 -22 -32z m1881 -117 l0 -148 -67 -19 -68 -20
-3 -178 -2 -177 22 7 c13 4 44 13 71 20 l47 12 0 -74 0 -74 -985 0 c-542 0
-985 4 -985 8 0 4 16 24 36 43 19 18 61 66 92 104 31 39 60 72 65 73 4 2 7 8
7 14 0 6 18 33 40 60 22 28 40 57 40 64 0 8 4 14 9 14 5 0 19 21 33 48 113
219 119 232 143 306 9 27 18 53 21 58 3 4 338 8 745 8 l739 0 0 -149z m420 70
c0 -81 -5 -91 -47 -91 -8 0 -29 -6 -46 -14 -18 -8 -59 -22 -92 -32 -33 -9 -64
-20 -70 -24 -5 -4 -25 -11 -42 -15 l-33 -7 0 131 0 131 165 0 165 0 0 -79z m0
-576 l0 -145 -165 0 -165 0 0 94 0 94 33 7 c17 4 37 11 42 15 6 4 37 15 70 24
33 10 74 23 90 31 30 13 59 22 83 24 9 1 12 -34 12 -144z m-420 -335 l0 -130
45 0 45 0 0 130 0 130 165 0 165 0 0 -85 0 -85 45 0 45 0 0 85 0 85 155 0 155
0 0 -131 c0 -116 2 -130 16 -125 9 3 28 9 42 13 14 3 37 12 51 19 l26 14 3
-251 c3 -285 7 -268 -81 -290 -27 -6 -51 -18 -54 -25 -4 -12 -196 -14 -1223
-14 -743 0 -1221 4 -1225 9 -10 18 -119 34 -265 40 l-145 6 -21 135 c-11 74
-23 142 -26 150 -3 8 -14 74 -23 145 -10 72 -21 135 -26 140 -4 6 -9 29 -10
50 -2 33 3 45 29 72 18 17 37 34 44 36 7 3 475 6 1041 6 l1027 1 0 -130z
m1390 -200 c0 -285 10 -255 -95 -281 -27 -7 -54 -15 -60 -19 -5 -5 -39 -16
-75 -25 -36 -10 -69 -22 -74 -26 -6 -5 -16 -9 -23 -9 -19 0 -19 493 0 508 6 5
41 18 77 27 36 10 70 22 75 26 9 7 147 47 168 48 4 1 7 -112 7 -249z m-3585
63 c9 -76 21 -147 26 -158 4 -11 16 -81 25 -155 9 -74 21 -139 25 -144 16 -18
9 -24 -35 -30 -24 -4 -52 -13 -62 -21 -16 -12 -80 -14 -356 -15 -186 0 -338 3
-338 6 0 35 539 574 573 574 4 0 30 18 59 40 29 22 56 40 59 40 4 0 14 -62 24
-137z m-193 -609 c-77 -61 -222 -232 -222 -263 0 -4 -7 -14 -14 -21 -8 -6 -20
-28 -26 -48 -7 -20 -18 -51 -25 -67 -33 -72 -39 -188 -19 -327 l6 -38 -241 0
-241 0 0 152 c0 201 11 245 105 438 15 30 40 78 56 105 16 28 34 60 40 73 l12
22 301 0 301 0 -33 -26z m353 -424 c4 -41 10 -79 15 -85 4 -5 13 -55 19 -110
7 -55 15 -110 18 -122 l5 -23 -262 0 -263 0 6 63 c8 82 64 194 125 248 25 21
50 39 57 39 7 0 18 7 25 14 6 8 35 22 63 31 29 9 61 20 72 25 29 14 99 17 106
5 4 -5 10 -44 14 -85z m310 76 c17 -9 37 -16 46 -16 9 0 33 -11 53 -25 20 -14
40 -25 44 -25 12 0 86 -82 113 -125 51 -80 56 -91 68 -143 6 -29 11 -60 11
-67 0 -13 -38 -15 -250 -15 -137 0 -250 3 -250 8 0 31 -33 260 -39 272 -5 9
-12 49 -16 89 l-7 74 98 -5 c63 -4 110 -11 129 -22z m-927 -518 c33 -107 222
-304 346 -361 35 -16 41 -17 54 -3 14 14 13 18 -14 37 -44 34 -154 152 -154
166 0 7 -3 13 -7 13 -5 0 -17 21 -27 48 -11 26 -23 49 -26 52 -4 3 -9 24 -13
48 l-5 42 269 0 c198 0 269 -3 269 -12 0 -32 33 -246 40 -263 5 -11 16 -81 25
-155 9 -74 20 -144 25 -155 17 -39 22 -121 8 -132 -18 -15 -165 -33 -267 -33
-94 0 -218 16 -235 29 -6 5 -36 14 -66 21 -66 15 -126 40 -248 104 -51 26
-134 89 -170 129 -14 15 -30 27 -36 27 -13 0 -56 41 -56 53 0 5 -29 45 -65 89
-36 44 -65 86 -65 94 0 8 -3 14 -7 14 -5 0 -16 21 -27 48 -10 26 -24 61 -32
79 -29 66 -39 63 229 63 l242 0 13 -42z m1272 -80 c0 -120 -23 -268 -42 -268
-4 0 -8 -6 -8 -14 0 -8 -18 -38 -40 -67 -22 -29 -41 -56 -42 -59 -10 -19 -134
-111 -165 -121 -21 -6 -48 -18 -59 -26 -19 -12 -22 -12 -28 2 -3 9 -6 32 -6
51 0 19 -4 34 -8 34 -5 0 -17 69 -26 153 -10 83 -22 157 -26 162 -4 6 -12 53
-19 105 -6 52 -14 112 -17 133 l-6 37 246 0 246 0 0 -122z"/>
</g>
</svg>
