<?xml version="1.0" standalone="no"?>
<!DOCTYPE svg PUBLIC "-//W3C//DTD SVG 20010904//EN"
 "http://www.w3.org/TR/2001/REC-SVG-20010904/DTD/svg10.dtd">
<svg version="1.0" xmlns="http://www.w3.org/2000/svg"
 width="720.000000pt" height="620.000000pt" viewBox="0 0 720.000000 620.000000"
 preserveAspectRatio="xMidYMid meet">
<metadata>
Created by potrace 1.15, written by Peter Selinger 2001-2017
</metadata>
<g transform="translate(0.000000,620.000000) scale(0.100000,-0.100000)"
fill="#000000" stroke="none">
<path d="M1872 6045 c-202 -152 -359 -415 -424 -710 -9 -42 -13 -140 -12 -332
l1 -273 -583 0 -584 0 0 -35 0 -35 588 0 589 0 17 -105 c18 -111 81 -375 115
-484 l20 -64 -46 -54 -45 -53 -619 0 -619 0 0 -40 0 -40 580 -2 580 -3 -83
-100 c-198 -237 -266 -330 -344 -466 -45 -79 -85 -152 -89 -161 -6 -17 -30
-18 -325 -18 l-319 0 0 -40 0 -40 299 0 299 0 -31 -112 c-45 -170 -50 -422
-11 -615 l6 -33 -281 0 -281 0 0 -35 0 -35 291 -2 291 -3 23 -60 c107 -286
311 -521 558 -646 l99 -49 -631 0 -631 0 0 -40 0 -40 955 0 955 0 0 -222 c-1
-248 -11 -331 -57 -448 -58 -151 -157 -266 -278 -326 -63 -31 -86 -37 -163
-42 -73 -4 -103 -1 -160 17 -75 22 -174 88 -210 138 l-20 29 76 0 c59 0 89 5
130 23 66 30 144 113 166 177 23 67 21 171 -5 238 -24 64 -96 149 -150 177
-165 84 -386 8 -476 -163 -26 -49 -28 -61 -27 -163 1 -91 5 -124 27 -190 62
-186 217 -342 406 -407 95 -33 294 -33 396 -1 217 68 401 285 467 551 20 78
22 115 22 349 l1 263 2273 0 2272 0 0 40 0 40 -2272 0 -2273 0 77 34 c185 81
361 258 437 439 30 74 61 203 61 257 l0 30 1065 0 1065 0 0 -25 c0 -14 12 -37
26 -52 38 -38 87 -28 141 32 l41 45 816 0 816 0 0 35 0 35 -776 0 -776 0 63
47 c231 169 307 251 354 375 28 75 18 200 -22 278 l-32 60 595 0 594 0 0 40 0
40 -637 0 c-530 0 -645 3 -678 15 -52 19 -169 19 -231 0 -27 -8 -77 -15 -111
-15 l-61 0 4 118 c2 64 7 233 10 375 l6 257 339 0 339 0 0 -93 c0 -52 3 -156
7 -233 6 -128 8 -140 30 -162 35 -35 86 -25 134 25 19 21 40 45 45 54 5 9 54
49 109 89 187 138 281 217 315 269 l35 50 173 1 172 0 0 40 0 40 -147 0 -148
0 0 108 c0 96 -3 113 -27 162 -29 60 -95 133 -143 158 -17 9 -65 17 -112 20
-96 5 -188 -18 -267 -68 l-49 -32 6 99 c4 54 7 146 7 206 l0 107 440 0 440 0
0 35 0 35 -440 0 -440 0 5 133 c3 72 7 220 10 328 l5 196 -26 11 c-34 16 -126
15 -149 -2 -17 -12 -18 -29 -12 -340 l7 -326 -531 0 c-476 0 -533 2 -562 17
-53 27 -182 30 -265 4 -39 -11 -91 -21 -117 -21 l-47 0 6 73 c3 39 8 227 11
417 3 190 8 399 11 465 l6 121 -26 12 c-34 15 -121 16 -148 1 -21 -11 -21 -13
-14 -413 3 -220 9 -463 13 -538 l6 -138 -877 0 -876 0 6 113 c10 183 -18 363
-92 586 -78 232 -179 436 -295 594 -62 84 -81 87 -167 22z m278 -565 c17 -71
24 -136 28 -255 5 -176 -7 -264 -54 -412 l-26 -83 -249 0 -249 0 0 59 c0 245
138 524 339 685 76 62 173 119 182 108 4 -4 17 -50 29 -102z m-121 -881 c-55
-109 -196 -316 -290 -426 l-27 -31 -26 93 c-24 89 -67 293 -80 383 l-6 42 230
0 230 0 -31 -61z m2145 -176 c3 -131 8 -302 10 -380 l3 -143 -348 0 -349 0 5
133 c3 72 7 220 10 328 l5 196 -26 11 c-34 16 -126 15 -149 -2 -17 -12 -18
-29 -12 -340 l7 -326 -671 0 -671 0 21 28 c212 275 323 468 373 651 l23 81
881 0 882 0 6 -237z m1660 45 c3 -106 8 -277 10 -380 l5 -188 -340 0 -341 0 7
118 7 118 -26 12 c-33 15 -120 16 -147 2 -17 -10 -19 -22 -19 -130 l0 -120
-256 0 -256 0 63 47 c231 169 307 251 354 375 28 75 18 200 -22 278 l-32 60
494 0 493 0 6 -192z m-1274 137 c18 -9 39 -36 56 -71 22 -46 27 -70 27 -130 0
-67 -4 -82 -43 -161 -36 -74 -58 -103 -141 -185 -55 -54 -103 -98 -108 -98
-12 0 -25 311 -18 426 6 97 25 150 69 191 46 43 108 54 158 28z m1668 -419
c55 -29 98 -149 85 -241 l-6 -45 -155 0 -155 0 6 80 c7 84 28 139 69 177 45
42 108 54 156 29z m-2894 -548 c3 -101 8 -270 10 -375 l5 -193 -664 0 -665 0
-6 28 c-14 56 -144 539 -157 582 l-14 45 39 48 40 47 703 0 703 0 6 -182z
m859 152 c15 -72 100 -77 161 -10 l36 40 299 0 299 0 6 -132 c3 -73 8 -242 10
-375 l5 -243 -467 0 -467 0 0 108 c0 96 -3 113 -27 162 -29 60 -95 133 -143
158 -17 9 -65 17 -112 20 -96 5 -188 -18 -267 -68 l-49 -32 6 99 c4 54 7 144
7 201 l0 102 349 0 349 0 5 -30z m2055 -12 c-23 -44 -210 -238 -228 -238 -6 0
-10 22 -10 48 0 27 -3 90 -6 140 l-7 92 137 0 137 0 -23 -42z m-4437 -506 c28
-107 49 -196 46 -198 -2 -2 -127 -3 -277 -2 l-273 3 111 147 c61 81 155 197
208 259 l98 111 18 -64 c10 -35 41 -150 69 -256z m1917 84 c55 -29 98 -149 85
-241 l-6 -45 -155 0 -155 0 6 80 c7 84 28 139 69 177 45 42 108 54 156 29z
m-2067 -403 c-141 -84 -262 -256 -297 -423 -16 -74 -15 -242 1 -282 7 -17 -5
-18 -160 -18 l-168 0 6 113 c9 172 83 424 172 583 l36 64 237 0 237 0 -64 -37z
m1689 -56 c0 -52 3 -156 7 -233 6 -128 8 -140 30 -162 35 -35 86 -25 134 25
19 21 40 45 45 54 5 9 54 49 109 89 187 138 281 217 315 269 l35 50 491 1 492
0 6 -237 c3 -131 8 -302 10 -380 l3 -143 -1062 0 -1062 0 -6 73 c-23 264 -195
529 -428 657 l-54 30 468 0 467 0 0 -93z m398 51 c-23 -44 -210 -238 -228
-238 -6 0 -10 22 -10 48 0 27 -3 90 -6 140 l-7 92 137 0 137 0 -23 -42z m1652
-13 c18 -9 39 -36 56 -71 22 -46 27 -70 27 -130 0 -67 -4 -82 -43 -161 -36
-74 -58 -103 -141 -185 -55 -54 -103 -98 -108 -98 -12 0 -25 311 -18 426 6 97
25 150 69 191 46 43 108 54 158 28z m-3149 -280 c148 -49 301 -198 364 -354
14 -33 25 -63 25 -66 0 -3 -100 -4 -222 -3 l-222 3 -42 215 c-24 118 -43 220
-43 226 -1 13 67 3 140 -21z m-295 12 c2 -7 24 -108 48 -225 l44 -212 -245 0
-245 0 4 88 c5 95 30 159 88 226 76 85 287 171 306 123z m-542 -559 c31 -69
105 -167 164 -216 74 -62 159 -112 188 -112 39 0 74 36 74 77 0 29 -8 38 -70
83 -77 57 -142 126 -171 183 l-19 37 239 0 240 0 10 -52 c30 -153 94 -589 87
-596 -2 -1 -61 -8 -131 -14 -215 -19 -389 15 -548 106 -198 113 -344 283 -402
469 -14 43 -25 80 -25 83 0 2 77 4 171 4 l170 0 23 -52z m1244 -50 c-8 -160
-64 -282 -183 -400 -38 -38 -147 -108 -168 -108 -3 0 -8 24 -12 53 -9 72 -73
485 -81 525 l-6 32 227 0 228 0 -5 -102z"/>
</g>
</svg>
