<?xml version="1.0" standalone="no"?>
<!DOCTYPE svg PUBLIC "-//W3C//DTD SVG 20010904//EN"
 "http://www.w3.org/TR/2001/REC-SVG-20010904/DTD/svg10.dtd">
<svg version="1.0" xmlns="http://www.w3.org/2000/svg"
 width="360.000000pt" height="656.000000pt" viewBox="0 0 360.000000 656.000000"
 preserveAspectRatio="xMidYMid meet">
<metadata>
Created by potrace 1.15, written by Peter Selinger 2001-2017
</metadata>
<g transform="translate(0.000000,656.000000) scale(0.100000,-0.100000)"
fill="#000000" stroke="none">
<path d="M1922 6045 c-202 -152 -359 -415 -424 -710 -9 -42 -13 -140 -12 -327
l1 -268 -589 0 -588 0 0 -35 0 -35 593 0 593 0 17 -108 c18 -112 80 -378 116
-491 l20 -64 -41 -48 -41 -49 -629 0 -628 0 0 -40 0 -40 589 -2 589 -3 -75
-90 c-212 -254 -282 -349 -367 -499 l-89 -156 -324 0 -323 0 0 -40 0 -40 306
0 c286 0 305 -1 300 -17 -48 -160 -59 -224 -63 -383 -5 -148 3 -255 24 -337
l5 -23 -286 0 -286 0 0 -35 0 -35 294 0 293 0 23 -62 c102 -283 307 -526 550
-653 l85 -44 -622 -1 -623 0 0 -40 0 -40 960 0 960 0 0 -227 c-1 -253 -11
-335 -57 -453 -58 -151 -157 -266 -278 -326 -63 -31 -86 -37 -163 -42 -73 -4
-103 -1 -160 17 -75 22 -174 88 -210 138 l-20 29 76 0 c59 0 89 5 130 23 66
30 144 113 166 177 23 67 21 171 -5 238 -24 64 -96 149 -150 177 -165 84 -386
8 -476 -163 -26 -49 -28 -61 -27 -163 1 -91 5 -124 27 -190 62 -186 217 -342
406 -407 95 -33 294 -33 396 -1 217 68 401 285 467 551 20 78 22 114 23 354
l0 268 488 0 487 0 0 40 0 40 -472 0 -473 1 64 29 c175 81 347 259 420 433 31
77 61 203 61 262 l0 35 200 0 200 0 0 35 0 35 -199 0 -198 0 -6 68 c-18 184
-104 364 -243 507 -72 74 -114 106 -196 151 l-63 34 453 0 452 0 0 40 0 40
-641 2 -642 3 -63 240 c-35 132 -74 276 -87 320 l-25 80 43 50 43 50 686 3
686 2 0 40 0 40 -651 0 c-636 0 -651 0 -638 19 252 345 317 458 372 651 l25
85 446 3 446 2 0 35 0 35 -440 0 -440 0 6 108 c10 178 -19 361 -92 581 -78
232 -179 436 -295 594 -62 84 -81 87 -167 22z m279 -565 c20 -83 23 -120 24
-290 0 -174 -3 -205 -24 -285 -13 -49 -30 -107 -38 -127 l-15 -38 -249 0 -249
0 0 54 c0 240 140 521 339 680 76 62 173 119 182 108 4 -4 17 -50 30 -102z
m-91 -815 c0 -14 -67 -136 -117 -213 -55 -86 -153 -219 -204 -279 l-27 -31
-26 93 c-26 93 -69 299 -81 388 l-6 47 230 0 c127 0 231 -2 231 -5z m-260
-1355 c33 -123 60 -226 60 -227 0 -2 -121 -3 -270 -3 -148 0 -270 3 -270 6 0
14 208 282 302 390 101 115 102 116 110 88 5 -16 35 -130 68 -254z m-115 -342
c-35 -19 -94 -66 -141 -113 -64 -63 -90 -98 -123 -165 -63 -129 -86 -282 -62
-407 l8 -43 -163 0 -164 0 0 69 c0 174 96 496 193 649 l27 42 243 0 242 -1
-60 -31z m581 -319 c148 -56 293 -202 353 -356 l21 -53 -223 0 -223 0 -37 198
c-21 108 -41 209 -44 223 l-5 27 53 -10 c29 -5 76 -18 105 -29z m-313 23 c6
-9 87 -398 87 -417 0 -13 -36 -15 -241 -15 l-242 0 5 83 c7 125 62 219 168
287 77 49 209 86 223 62z m-541 -559 c32 -73 105 -170 166 -221 74 -62 159
-112 188 -112 39 0 74 36 74 77 0 29 -8 38 -70 83 -77 57 -142 126 -171 182
-10 21 -19 40 -19 43 0 3 108 5 240 5 132 0 240 -2 240 -5 0 -2 12 -71 26
-152 29 -167 75 -495 70 -501 -2 -1 -61 -8 -131 -14 -215 -19 -389 15 -548
106 -198 113 -344 283 -402 469 -14 43 -25 82 -25 88 0 5 69 9 169 9 l168 0
25 -57z m1243 -48 c-1 -158 -52 -276 -175 -401 -44 -45 -165 -123 -175 -112
-2 1 -11 57 -20 123 -9 66 -29 201 -45 300 -17 99 -30 183 -30 188 0 4 100 6
223 5 l222 -3 0 -100z"/>
</g>
</svg>
