<?xml version="1.0" standalone="no"?>
<!DOCTYPE svg PUBLIC "-//W3C//DTD SVG 20010904//EN"
 "http://www.w3.org/TR/2001/REC-SVG-20010904/DTD/svg10.dtd">
<svg version="1.0" xmlns="http://www.w3.org/2000/svg"
 width="730.000000pt" height="656.000000pt" viewBox="0 0 730.000000 656.000000"
 preserveAspectRatio="xMidYMid meet">
<metadata>
Created by potrace 1.15, written by Peter Selinger 2001-2017
</metadata>
<g transform="translate(0.000000,656.000000) scale(0.100000,-0.100000)"
fill="#000000" stroke="none">
<path d="M5630 6351 c-6 -12 -10 -124 -10 -293 l0 -273 -127 -48 c-71 -26
-131 -47 -135 -47 -5 0 -8 114 -8 254 0 211 -2 256 -15 266 -18 15 -83 16 -98
1 -8 -8 -14 -100 -17 -292 l-5 -281 -90 -36 -90 -37 -3 -139 c-2 -119 0 -141
14 -157 21 -23 66 -24 124 -4 23 8 44 15 46 15 2 0 4 -117 4 -260 l0 -260 -26
-10 c-15 -6 -240 -10 -570 -10 l-544 0 0 159 0 159 78 26 c127 43 122 35 122
192 0 121 -2 136 -20 154 -25 25 -52 25 -123 1 l-57 -20 0 258 c0 186 -3 260
-12 269 -7 7 -31 12 -55 12 -32 0 -45 -5 -53 -19 -6 -12 -10 -124 -10 -293 l0
-273 -127 -48 c-71 -26 -131 -47 -135 -47 -5 0 -8 114 -8 254 0 211 -2 256
-15 266 -18 15 -83 16 -99 1 -7 -8 -13 -100 -16 -292 l-5 -281 -90 -36 -90
-37 -3 -139 c-2 -119 0 -141 14 -157 21 -23 66 -24 124 -4 23 8 44 15 46 15 2
0 4 -27 4 -60 l0 -60 -540 0 -540 0 6 108 c10 178 -19 361 -92 581 -78 232
-179 436 -295 594 -62 84 -81 87 -167 22 -202 -152 -359 -415 -424 -710 -9
-42 -13 -140 -12 -327 l1 -268 -589 0 -588 0 0 -35 0 -35 593 0 593 0 17 -108
c18 -112 80 -378 116 -491 l20 -64 -41 -48 -41 -49 -629 0 -628 0 0 -40 0 -40
589 -2 589 -3 -75 -90 c-212 -254 -282 -349 -367 -499 l-89 -156 -324 0 -323
0 0 -40 0 -40 306 0 c286 0 305 -1 300 -17 -48 -160 -59 -224 -63 -383 -5
-148 3 -255 24 -337 l5 -23 -286 0 -286 0 0 -35 0 -35 294 0 293 0 23 -63
c102 -282 307 -525 550 -652 l85 -44 -622 -1 -623 0 0 -40 0 -40 960 0 960 0
0 -227 c-1 -253 -11 -335 -57 -453 -58 -151 -157 -266 -278 -326 -63 -31 -86
-37 -163 -42 -73 -4 -103 -1 -160 17 -75 22 -174 88 -210 138 l-20 29 76 0
c59 0 89 5 130 23 66 30 144 113 166 177 23 67 21 171 -5 238 -24 64 -96 149
-150 177 -165 84 -386 8 -476 -163 -26 -49 -28 -61 -27 -163 1 -91 5 -124 27
-190 62 -186 217 -342 406 -407 95 -33 294 -33 396 -1 217 68 401 285 467 551
20 78 22 114 23 354 l0 268 2308 0 2307 0 0 40 0 40 -2292 0 -2293 1 64 29
c175 81 347 259 420 433 31 77 61 203 61 262 l0 35 2020 0 2020 0 0 35 0 35
-1240 0 -1240 0 0 273 0 272 129 48 c70 26 131 47 135 47 3 0 6 -112 6 -248 0
-278 1 -284 63 -284 68 0 66 -6 69 304 l3 280 88 34 89 34 479 0 479 0 0 -171
c0 -98 4 -178 10 -190 8 -14 21 -19 53 -19 24 0 48 5 55 12 8 8 12 65 12 190
l0 178 135 0 135 0 0 -98 c0 -116 9 -134 63 -134 61 0 67 11 67 128 l0 104
205 0 205 0 0 40 0 40 -205 0 -206 0 3 136 3 136 80 30 c119 46 115 38 115
193 0 115 -2 134 -18 148 -23 21 -76 22 -132 2 -23 -8 -44 -15 -46 -15 -2 0
-4 27 -4 60 l0 60 205 0 205 0 0 40 0 40 -205 0 -205 0 0 159 0 159 78 26
c127 43 122 35 122 192 0 121 -2 136 -20 154 -25 25 -52 25 -123 1 l-57 -20 0
45 0 44 205 0 205 0 0 35 0 35 -205 0 -205 0 0 178 c0 125 -4 182 -12 190 -7
7 -31 12 -55 12 -32 0 -45 -5 -53 -19 -6 -12 -10 -92 -10 -190 l0 -171 -135 0
-135 0 0 104 c0 117 -6 128 -67 128 -54 0 -63 -18 -63 -134 l0 -98 -50 0 -50
0 0 108 c0 93 -3 111 -18 125 -23 21 -76 22 -132 2 -23 -8 -44 -15 -46 -15 -2
0 -4 117 -4 259 l0 259 78 26 c127 43 122 35 122 192 0 121 -2 136 -20 154
-25 25 -52 25 -123 1 l-57 -20 0 258 c0 186 -3 260 -12 269 -7 7 -31 12 -55
12 -32 0 -45 -5 -53 -19z m-3429 -871 c20 -83 23 -120 24 -290 0 -174 -3 -205
-24 -285 -13 -49 -30 -107 -38 -127 l-15 -38 -249 0 -249 0 0 54 c0 240 140
521 339 680 76 62 173 119 182 108 4 -4 17 -50 30 -102z m3419 -312 l0 -263
-135 -47 -135 -47 2 261 3 262 130 47 c72 26 131 48 133 48 1 1 2 -117 2 -261z
m-1670 -293 l0 -135 -135 0 -136 0 3 87 3 87 130 47 c72 26 131 48 133 48 1 1
2 -60 2 -134z m-1840 -210 c0 -14 -67 -136 -117 -213 -55 -86 -153 -219 -204
-279 l-27 -31 -26 93 c-26 93 -69 299 -81 388 l-6 47 230 0 c127 0 231 -2 231
-5z m1438 -162 l-3 -166 -84 -29 c-47 -15 -88 -34 -93 -40 -4 -7 -8 -75 -8
-150 0 -130 1 -138 22 -152 30 -21 57 -20 118 4 l50 20 0 -40 0 -40 -751 0
c-734 0 -751 0 -738 19 182 248 264 375 309 477 25 55 40 99 86 252 3 9 121
12 549 12 l545 0 -2 -167z m402 75 l0 -93 -135 -47 -135 -47 0 140 0 139 135
0 135 0 0 -92z m830 -186 l0 -277 -127 -48 c-71 -26 -131 -47 -135 -47 -5 0
-8 114 -8 254 0 211 -2 256 -15 266 -18 15 -83 16 -98 1 -8 -8 -14 -101 -17
-293 l-5 -280 -70 -29 c-55 -22 -86 -28 -148 -28 l-78 -1 3 136 3 136 80 30
c119 46 115 39 115 191 0 107 -3 134 -17 149 -20 22 -75 24 -133 3 -23 -8 -44
-15 -46 -15 -2 0 -4 29 -4 65 l0 65 350 0 350 0 0 -278z m250 144 c0 -128 1
-136 22 -150 30 -21 57 -20 118 4 l50 20 0 -250 0 -250 -55 0 -55 0 0 125 c0
112 -2 127 -20 145 -25 25 -52 25 -123 1 l-57 -20 0 255 0 254 60 0 60 0 0
-134z m1018 -7 l-3 -141 -90 -36 -90 -37 -3 -139 c-2 -119 0 -141 14 -157 21
-23 66 -24 124 -4 23 8 44 15 46 15 2 0 4 -27 4 -60 l0 -60 -350 0 -350 0 0
273 0 272 129 48 c70 26 131 47 135 47 3 0 6 -112 6 -248 0 -278 1 -284 63
-284 68 0 66 -6 69 304 l3 280 85 33 c63 25 101 34 148 34 l63 1 -3 -141z
m402 73 l0 -67 -127 -48 c-71 -26 -131 -47 -135 -47 -5 0 -8 52 -8 115 l0 115
135 0 135 0 0 -68z m0 -557 l0 -135 -135 0 -136 0 3 87 3 87 130 47 c72 26
131 48 133 48 1 1 2 -60 2 -134z m-2500 -25 l0 -110 -135 0 -135 0 0 63 0 62
123 46 c67 26 128 47 135 48 9 1 12 -27 12 -109z m-400 -361 c0 -98 4 -178 10
-190 8 -14 21 -19 53 -19 24 0 48 5 55 12 8 8 12 65 12 190 l0 178 135 0 135
0 0 -98 c0 -116 9 -134 63 -134 61 0 67 11 67 128 l0 104 55 0 55 0 0 -107 c0
-85 3 -110 17 -125 20 -22 66 -23 123 -3 23 8 44 15 46 15 3 0 3 -118 2 -262
l-3 -263 -1153 -3 c-917 -2 -1153 0 -1157 10 -2 7 -35 132 -74 278 -39 146
-77 285 -85 310 l-14 46 45 52 45 52 784 0 784 0 0 -171z m2498 9 l-3 -161
-84 -29 c-47 -15 -88 -34 -93 -40 -4 -7 -8 -75 -8 -150 0 -130 1 -138 22 -152
30 -21 57 -20 118 4 l50 20 0 -40 0 -40 -470 0 -470 0 0 102 c0 80 -3 105 -17
120 -20 22 -75 24 -133 3 -23 -8 -44 -15 -46 -15 -2 0 -4 117 -4 259 l0 259
28 10 c17 7 233 11 570 11 l542 1 -2 -162z m402 75 l0 -88 -135 -47 -135 -47
0 135 0 134 135 0 135 0 0 -87z m-1670 -245 l0 -263 -135 -47 -135 -47 2 261
3 262 130 47 c72 26 131 48 133 48 1 1 2 -117 2 -261z m-2930 -188 c33 -123
60 -226 60 -227 0 -2 -121 -3 -270 -3 -148 0 -270 3 -270 6 0 14 208 282 302
390 101 115 102 116 110 88 5 -16 35 -130 68 -254z m4600 -120 l0 -110 -135 0
-135 0 0 63 0 62 123 46 c67 26 128 47 135 48 9 1 12 -27 12 -109z m-4715
-222 c-35 -19 -94 -66 -141 -113 -64 -63 -90 -98 -123 -165 -63 -129 -86 -282
-62 -407 l8 -43 -163 0 -164 0 0 69 c0 174 96 496 193 649 l27 42 243 0 242
-1 -60 -31z m2455 -102 c0 -128 1 -136 22 -150 30 -21 57 -20 118 4 l50 20 0
-250 0 -250 -714 0 -713 0 -6 68 c-18 184 -104 364 -243 507 -72 74 -114 106
-196 151 l-63 34 873 0 872 0 0 -134z m-1874 -217 c148 -56 293 -202 353 -356
l21 -53 -223 0 -223 0 -37 198 c-21 108 -41 209 -44 223 l-5 27 53 -10 c29 -5
76 -18 105 -29z m-313 23 c6 -9 87 -398 87 -417 0 -13 -36 -15 -241 -15 l-242
0 5 83 c7 125 62 219 168 287 77 49 209 86 223 62z m-541 -559 c32 -73 105
-170 166 -221 74 -62 159 -112 188 -112 39 0 74 36 74 77 0 29 -8 38 -70 83
-77 57 -142 126 -171 182 -10 21 -19 40 -19 43 0 3 108 5 240 5 132 0 240 -2
240 -5 0 -2 12 -71 26 -152 29 -167 75 -495 70 -501 -2 -1 -61 -8 -131 -14
-215 -19 -389 15 -548 106 -198 113 -344 283 -402 469 -14 43 -25 82 -25 88 0
5 69 9 169 9 l168 0 25 -57z m1243 -48 c-1 -158 -52 -276 -175 -401 -44 -45
-165 -123 -175 -112 -2 1 -11 57 -20 123 -9 66 -29 201 -45 300 -17 99 -30
183 -30 188 0 4 100 6 223 5 l222 -3 0 -100z"/>
</g>
</svg>
