<?xml version="1.0" standalone="no"?>
<!DOCTYPE svg PUBLIC "-//W3C//DTD SVG 20010904//EN"
 "http://www.w3.org/TR/2001/REC-SVG-20010904/DTD/svg10.dtd">
<svg version="1.0" xmlns="http://www.w3.org/2000/svg"
 width="140.000000pt" height="343.000000pt" viewBox="0 0 140.000000 343.000000"
 preserveAspectRatio="xMidYMid meet">
<metadata>
Created by potrace 1.15, written by Peter Selinger 2001-2017
</metadata>
<g transform="translate(0.000000,343.000000) scale(0.100000,-0.100000)"
fill="#000000" stroke="none">
<path d="M1043 3390 l-23 -9 0 -1213 c0 -667 -3 -1223 -6 -1234 -6 -21 -6 -21
-77 9 -65 28 -82 31 -177 30 -217 0 -414 -92 -577 -266 -71 -77 -142 -178
-136 -194 3 -7 0 -13 -6 -13 -7 0 -11 -39 -11 -113 0 -102 3 -118 26 -165 32
-64 89 -115 163 -144 83 -33 275 -33 381 0 189 60 340 173 463 349 l57 81 0
1434 c0 1334 -1 1434 -17 1446 -19 14 -29 14 -60 2z"/>
</g>
</svg>
